<?xml version="1.0" encoding="UTF-8" standalone="no"?>
<svg width="214px" height="203px" viewBox="0 0 214 203" version="1.1" xmlns="http://www.w3.org/2000/svg" xmlns:xlink="http://www.w3.org/1999/xlink" xmlns:sketch="http://www.bohemiancoding.com/sketch/ns">
    <!-- Generator: Sketch 3.2.2 (9983) - http://www.bohemiancoding.com/sketch -->
    <title>Signature Luis Logo</title>
    <desc>Created with Sketch.</desc>
    <defs></defs>
    <g id="Page-1" stroke="none" stroke-width="1" fill="none" fill-rule="evenodd" sketch:type="MSPage">
        <path d="M3.6015625,199.758932 L210.037788,199.758932 L210.037788,3.84005241 L3.6015625,3.84005241 L3.6015625,199.758932 Z" id="Square" stroke="#FFFFFF" stroke-width="6" sketch:type="MSShapeGroup"></path>
        <path d="M135.061827,46.3043789 C134.836083,86.2516815 135.950483,126.224168 133.648768,166.134811 C133.255606,172.952047 132.800932,179.657505 132.800932,186.492416 C132.800932,189.134283 133.366156,197.050894 133.366156,194.409027 C133.366156,173.100561 123.18718,151.089104 118.968828,129.969427 C114.901232,109.60453 110.306658,89.4433677 109.086939,68.8987335 C108.602974,60.7469672 108.242279,52.7304014 108.242279,44.5849436 C108.242279,42.1838141 109.369551,35.0198539 109.369551,37.4209834 C109.369551,67.2211412 121.808343,96.492228 124.332103,126.199815 C124.572172,129.025705 124.19978,170.659195 124.332103,170.659195 C130.837632,170.659195 123.287051,161.999574 122.639607,157.677565 C119.964626,139.820758 121.51231,146.957079 120.099275,127.141158 C118.804163,108.978941 117.603364,56.9464203 116.711108,56.6485523 C116.434147,56.5560924 112.543617,72.9154342 112.192494,85.5609304 C111.226618,120.346355 115.298049,155.284644 115.298049,189.793477 C115.298049,198.833057 115.962957,171.703411 115.298049,162.67474 C112.954031,130.845728 104.753954,99.3159935 99.4908368,67.6775316 C96.343943,48.7604386 97.4477081,54.6371528 95.2548342,36.5771669 C94.7144909,32.1270286 94.410174,18.7300915 94.410174,23.1948298 C94.410174,49.3804008 95.7111561,75.1923655 100.335497,101.258463 C110.786569,160.168187 101.824584,96.5059978 106.263995,147.625971 C107.132514,157.626996 108.708395,167.596194 109.652162,177.59418 C112.045707,202.950649 114.50207,201.124299 108.242279,176.464144 C102.030605,151.99355 92.8085572,127.947456 86.2207805,103.518534 C85.5851046,101.161308 84.6810069,82.3148206 81.1401177,79.9595149 C80.5063925,79.5379776 80.2922821,81.9361877 80.2922821,97.1114646 C80.2922821,116.436726 81.5275478,135.010505 84.5282847,154.221733 C85.1470055,158.182888 85.9648123,162.130278 86.5033924,166.096649 C86.605366,166.847633 85.3740034,168.358841 86.5033924,168.358841 C88.6985574,168.358841 77.1867269,63.0303365 77.1867269,52.4400702 C77.1867269,45.6619758 76.5656878,66.008954 77.1867269,72.7743533 C78.4572903,86.6154578 82.7253349,100.345929 85.6587322,114.0514 C86.9321244,120.000966 88.7293578,137.974488 88.7293578,131.964481 C88.7293578,130.569155 85.7633435,115.76932 85.3411908,116.13126 C71.9209765,127.637302 77.9170888,157.408741 71.7916981,156.091698 C68.9301744,155.476431 72.2846072,128.680576 72.6363583,125.625256 C73.0550741,121.988279 72.7035446,111.848812 75.7419135,114.880376 C83.0396183,122.161736 71.7121189,138.530741 70.4135683,144.850705 C69.8267334,147.706793 69.2401598,156.065832 67.8732369,153.331273 C65.1641002,147.911586 67.1575228,132.497925 61.0969028,128.451405 C60.9414051,128.347584 58.7117484,139.014614 57.4261239,145.039397 C56.6328824,148.756741 50.4933377,145.293034 47.2647983,146.735511 C44.034548,148.178753 46.8910443,156.964032 45.8517389,154.463429 C34.8643089,128.027309 51.3236643,171.508109 111.347834,161.79064 C140.750501,157.030566 172.119904,136.261089 187.570478,119.947515 C212.397809,93.7334412 229.760404,17.6785022 166.114204,5.53616611 C157.930665,3.9749216 149.176544,4.40542364 140.707714,3.84005241 C108.238226,9.73724977 99.6913547,31.2785451 94.6896104,51.5262889 C84.9418967,90.9863652 91.3046188,133.585616 91.3046188,173.476864 L91.3046188,192.138355 C91.3046188,194.580758 88.7708874,201.227231 91.3046188,199.465566 C101.472386,192.396072 108.401669,180.489588 114.170777,171.759549 C118.379382,165.390923 121.743255,159.062414 125.179938,152.53198 C125.60067,151.732498 127.511858,149.831341 126.310386,150.104417 C88.3668091,158.728402 93.2371683,164.728804 39.0785803,169.895944 C33.0558779,169.64506 26.778146,170.327937 21.0104731,169.143293 C-7.25019029,163.338729 4.14112143,134.8662 18.4701417,126.168012 C52.0060789,105.810593 168.708608,88.2912504 208.175741,96.9291324" id="Signature" stroke="#FFFFFF" stroke-width="2" sketch:type="MSShapeGroup"></path>
    </g>
</svg>