<?xml version="1.0" encoding="UTF-8"?>
<svg width="24px" height="20px" viewBox="0 0 24 20" version="1.1" xmlns="http://www.w3.org/2000/svg" xmlns:xlink="http://www.w3.org/1999/xlink">
    <title>twitter</title>
    <g id="Symbols" stroke="none" stroke-width="1" fill="none" fill-rule="evenodd" fill-opacity="0.75">
        <g id="Footer" transform="translate(-627.000000, 0.000000)" fill="#151118">
            <g id="twitter" transform="translate(627.000000, 0.000000)">
                <path d="M23.1578947,1.05263158 C22.1498789,1.76366043 21.0337978,2.30748342 19.8526316,2.66315789 C18.5540627,1.17003978 16.4614421,0.646436117 14.6127173,1.35205625 C12.7639926,2.05767638 11.5524213,3.84242197 11.5789474,5.82105263 L11.5789474,6.87368421 C7.82175245,6.97110779 4.2652898,5.18102159 2.10526316,2.10526316 C2.10526316,2.10526316 -2.10526316,11.5789474 7.36842105,15.7894737 C5.20055533,17.2610172 2.61805991,17.998873 1.16865582e-15,17.8947368 C9.47368421,23.1578947 21.0526316,17.8947368 21.0526316,5.78947368 C21.0516622,5.49626699 21.0234711,5.20378358 20.9684211,4.91578947 C22.0427402,3.85630851 22.8008709,2.51864504 23.1578947,1.05263158 Z" id="Path"></path>
            </g>
        </g>
    </g>
</svg>